<?xml version="1.0" encoding="utf-8"?>
<!-- Generator: Adobe Illustrator 17.0.0, SVG Export Plug-In . SVG Version: 6.00 Build 0)  -->
<!DOCTYPE svg PUBLIC "-//W3C//DTD SVG 1.1//EN" "http://www.w3.org/Graphics/SVG/1.1/DTD/svg11.dtd">
<svg version="1.1" id="Layer_1" xmlns="http://www.w3.org/2000/svg" xmlns:xlink="http://www.w3.org/1999/xlink" x="0px" y="0px"
	 width="110px" height="110px" viewBox="0 0 110 110" enable-background="new 0 0 110 110" xml:space="preserve">
<path opacity="0.1" fill="#23A6FF" d="M83.508,11.421c13.535,8.854,17.329,27.004,8.475,40.539L67.031,90.103
	c-8.854,13.535-27.004,17.329-40.539,8.475l0,0C12.957,89.725,9.162,71.575,18.017,58.04l24.952-38.143
	C51.823,6.362,69.973,2.567,83.508,11.421L83.508,11.421z"/>
<g>
	<path fill="#23A6FF" d="M63.014,73.688c-0.341-0.141-1.009-0.348-1.608-0.679c-0.981-0.542-1.905-1.185-2.876-1.747
		c-2.362-1.367-4.738-1.376-7.095,0.019c-0.989,0.586-1.948,1.224-2.941,1.804c-2.058,1.202-3.947,0.571-4.872-1.615
		c-0.447-1.058-0.85-2.136-1.312-3.187c-1.144-2.6-3.143-4.01-5.981-4.213c-1.064-0.076-2.129-0.127-3.192-0.204
		c-2.124-0.153-3.414-1.788-3.013-3.885c0.21-1.099,0.541-2.175,0.796-3.266c0.667-2.852-0.043-5.268-2.306-7.183
		c-0.836-0.707-1.685-1.399-2.506-2.123c-1.731-1.526-1.761-3.455-0.057-5.007c0.933-0.85,1.946-1.613,2.875-2.468
		c1.913-1.76,2.586-3.951,2.073-6.487c-0.25-1.235-0.606-2.449-0.875-3.681c-0.457-2.097,0.849-3.801,3.006-3.952
		c1.036-0.073,2.073-0.121,3.109-0.198c2.928-0.217,4.997-1.656,6.148-4.371c0.426-1.006,0.802-2.034,1.236-3.037
		c0.951-2.195,2.795-2.804,4.879-1.604c0.923,0.531,1.813,1.121,2.72,1.682c2.509,1.551,5.022,1.543,7.535,0.012
		c0.91-0.554,1.801-1.142,2.72-1.681c2.086-1.224,3.978-0.595,4.929,1.631c0.44,1.031,0.838,2.08,1.29,3.105
		c1.101,2.498,2.992,3.924,5.739,4.152c1.203,0.1,2.408,0.17,3.609,0.278c1.99,0.18,3.263,1.912,2.834,3.871
		c-0.282,1.287-0.658,2.554-0.904,3.846c-0.491,2.58,0.27,4.765,2.239,6.508c0.819,0.725,1.673,1.412,2.51,2.117
		c1.948,1.642,1.979,3.622,0.071,5.289c-0.845,0.739-1.726,1.438-2.567,2.181c-2.111,1.864-2.791,4.197-2.19,6.917
		c0.242,1.094,0.552,2.173,0.807,3.264c0.522,2.237-0.78,3.944-3.094,4.096c-1.315,0.087-2.647,0.097-3.939,0.324
		c-2.431,0.428-4.182,1.8-5.141,4.116c-0.482,1.165-0.94,2.342-1.464,3.488C65.662,73.002,64.72,73.669,63.014,73.688z
		 M32.656,60.773c0.168,0.111,0.405,0.39,0.672,0.421c1.142,0.134,2.295,0.173,3.439,0.287c3.832,0.383,6.49,2.397,8.054,5.884
		c0.435,0.971,0.811,1.969,1.215,2.954c0.35,0.855,0.466,0.894,1.282,0.395c0.814-0.497,1.618-1.011,2.434-1.504
		c3.453-2.086,6.922-2.197,10.403-0.069c0.885,0.541,1.771,1.083,2.639,1.651c0.559,0.366,0.892,0.287,1.141-0.363
		c0.452-1.177,0.903-2.36,1.451-3.493c1.382-2.858,3.64-4.674,6.769-5.255c1.371-0.254,2.791-0.244,4.188-0.352
		c0.973-0.076,1.077-0.213,0.854-1.14c-0.243-1.008-0.475-2.019-0.736-3.023c-0.751-2.889-0.181-5.58,1.608-7.87
		c1.122-1.437,2.641-2.572,4.029-3.788c0.533-0.467,0.526-0.754-0.003-1.178c-0.898-0.719-1.787-1.452-2.637-2.228
		c-2.775-2.534-3.848-5.636-3.018-9.339c0.239-1.066,0.519-2.123,0.773-3.187c0.2-0.838,0.074-1.013-0.765-1.071
		c-0.98-0.068-1.96-0.132-2.941-0.189c-3.059-0.179-5.537-1.528-7.234-4.022c-0.946-1.391-1.504-3.051-2.198-4.608
		c-0.526-1.18-0.622-1.237-1.69-0.579c-0.788,0.486-1.562,0.995-2.361,1.461c-3.391,1.978-6.79,2.078-10.185,0.003
		c-0.814-0.497-1.62-1.006-2.432-1.506c-0.988-0.609-1-0.605-1.424,0.434c-0.424,1.038-0.818,2.089-1.277,3.111
		c-1.279,2.847-3.46,4.695-6.483,5.375c-1.573,0.354-3.228,0.349-4.848,0.482c-0.593,0.049-0.788,0.285-0.631,0.876
		c0.294,1.111,0.565,2.228,0.809,3.35c0.804,3.699-0.268,6.806-3.025,9.349c-0.824,0.761-1.689,1.482-2.573,2.172
		c-0.565,0.441-0.609,0.772-0.027,1.234c0.966,0.768,1.932,1.545,2.83,2.39c2.439,2.295,3.46,5.128,2.931,8.443
		C33.459,57.721,33.041,59.126,32.656,60.773z"/>
	<path fill="#23A6FF" d="M38.191,94c0-9.404,0-18.66,0-27.92c1.372,0.203,2.667,1.664,2.667,2.97c0,6.542,0.003,13.083,0.006,19.625
		c0,0.249,0,0.499,0,0.888c0.395-0.192,0.689-0.329,0.978-0.476c4.299-2.184,8.603-4.359,12.891-6.565
		c0.541-0.278,0.942-0.234,1.465,0.049c4.12,2.225,8.258,4.417,12.391,6.618c0.167,0.089,0.338,0.171,0.631,0.318
		c0-0.43,0-0.752,0-1.074c0-6.205,0.08-12.411-0.045-18.613c-0.042-2.069,1.011-3.049,2.673-3.909c0,9.368,0,18.663,0,28.067
		c-0.255-0.125-0.495-0.235-0.727-0.358c-4.95-2.636-9.905-5.262-14.841-7.924c-0.579-0.312-1.021-0.33-1.608-0.029
		c-5.115,2.62-10.246,5.209-15.374,7.806C38.978,93.635,38.649,93.782,38.191,94z"/>
	<path fill="#23A6FF" d="M55.009,76.602c0-0.98,0-1.961,0-2.941c0-0.452,0.062-0.876,0.644-0.881
		c0.618-0.006,0.706,0.427,0.706,0.92c-0.001,1.961,0.001,3.922,0.003,5.883c0,0.476-0.05,0.949-0.661,0.971
		c-0.623,0.021-0.693-0.442-0.692-0.926C55.009,78.619,55.009,77.61,55.009,76.602z"/>
	<path fill="#23A6FF" d="M55.05,27.039c9.876-0.062,18.141,8.178,18.212,18.158c0.071,9.948-8.108,18.258-18.034,18.324
		c-10.126,0.067-18.468-8.054-18.509-18.019C36.676,35.273,44.788,27.103,55.05,27.039z M54.961,28.394
		c-9.317,0.06-16.924,7.716-16.89,16.997c0.034,9.282,7.741,16.859,17.069,16.784c9.328-0.075,16.834-7.669,16.774-16.969
		C71.854,35.907,64.218,28.334,54.961,28.394z"/>
	<path fill="#23A6FF" d="M49.216,52.075c0.097-0.609,0.207-1.217,0.289-1.828c0.266-1.979-0.341-3.645-1.812-5
		c-0.371-0.342-0.748-0.686-1.066-1.074c-0.741-0.904-0.45-1.721,0.693-1.985c0.409-0.094,0.829-0.141,1.245-0.203
		c2.152-0.323,3.734-1.429,4.705-3.393c0.235-0.477,0.464-0.965,0.766-1.399c0.621-0.892,1.454-0.853,2.004,0.077
		c0.27,0.458,0.505,0.938,0.733,1.419c0.918,1.939,2.471,2.986,4.566,3.286c0.444,0.064,0.892,0.117,1.327,0.22
		c1.189,0.283,1.464,1.131,0.659,2.042c-0.334,0.377-0.71,0.718-1.08,1.062c-1.549,1.442-2.062,3.217-1.713,5.274
		c0.089,0.525,0.221,1.048,0.245,1.577c0.047,1.026-0.639,1.504-1.595,1.125c-0.52-0.206-1.019-0.467-1.516-0.726
		c-1.777-0.925-3.548-0.9-5.326-0.005c-0.5,0.252-0.997,0.518-1.518,0.721C49.819,53.655,49.15,53.145,49.216,52.075z M47.69,43.342
		c2.831,2.302,3.721,5.054,2.869,8.389c3.644-1.476,4.028-2.01,8.891-0.007c-0.392-1.569-0.62-3.148,0.061-4.581
		c0.643-1.352,1.569-2.569,2.354-3.821c-3.258-0.168-5.5-1.993-6.89-5.238C53.649,41.42,51.386,43.171,47.69,43.342z"/>
</g>
</svg>
