<?xml version="1.0" encoding="utf-8"?>
<!-- Generator: Adobe Illustrator 17.0.0, SVG Export Plug-In . SVG Version: 6.00 Build 0)  -->
<!DOCTYPE svg PUBLIC "-//W3C//DTD SVG 1.1//EN" "http://www.w3.org/Graphics/SVG/1.1/DTD/svg11.dtd">
<svg version="1.1" id="Layer_1" xmlns="http://www.w3.org/2000/svg" xmlns:xlink="http://www.w3.org/1999/xlink" x="0px" y="0px"
	 width="110px" height="110px" viewBox="0 0 110 110" enable-background="new 0 0 110 110" xml:space="preserve">
<path opacity="0.1" fill="#FFA502" d="M83.508,11.421c13.535,8.854,17.329,27.004,8.475,40.539L67.031,90.103
	c-8.854,13.535-27.004,17.329-40.539,8.475l0,0c-13.535-8.854-17.33-27.004-8.475-40.539l24.952-38.143
	C51.823,6.362,69.973,2.567,83.508,11.421L83.508,11.421z"/>
<g>
	<path fill="#FFA502" d="M54.983,68.032c-1.221,0-2.441,0.008-3.662-0.003c-1.056-0.009-1.522-0.483-1.527-1.554
		c-0.008-2.007-0.021-4.014,0.011-6.021c0.008-0.53-0.1-0.886-0.637-1.048c-1.586-0.478-2.195-1.494-2.012-3.178
		c0.155-1.421,0.023-2.872,0.034-4.309c0.014-1.768,0.78-3.139,2.289-4.046c0.426-0.256,0.532-0.485,0.437-0.959
		c-0.428-2.124,0.43-4.221,2.228-5.36c1.869-1.184,3.796-1.193,5.674-0.024c1.833,1.141,2.685,3.223,2.255,5.42
		c-0.088,0.452,0.022,0.664,0.413,0.898c1.571,0.942,2.33,2.361,2.327,4.192c-0.004,1.763-0.022,3.526,0.007,5.289
		c0.013,0.78-0.273,1.364-1.007,1.576c-1.382,0.399-1.76,1.259-1.639,2.647c0.139,1.588,0.035,3.198,0.032,4.798
		c-0.002,1.237-0.432,1.676-1.644,1.68C57.37,68.035,56.176,68.032,54.983,68.032z M57.539,65.393
		c0.032-0.127,0.056-0.178,0.056-0.229c0.004-1.49-0.004-2.98,0.01-4.47c0.025-2.724-0.328-2.444,2.124-3.665
		c0.223-0.111,0.452-0.467,0.459-0.715c0.042-1.489,0.043-2.98,0.012-4.47c-0.025-1.164-0.84-1.983-2.009-2.025
		c-0.645-0.023-1.191-0.16-1.472-0.79c-0.263-0.59-0.037-1.075,0.331-1.568c0.865-1.16,0.71-2.589-0.33-3.512
		c-0.974-0.865-2.434-0.872-3.419-0.015c-1.043,0.906-1.215,2.356-0.361,3.509c0.385,0.52,0.621,1.02,0.318,1.638
		c-0.289,0.588-0.813,0.71-1.424,0.735c-1.185,0.049-2,0.845-2.027,2.006c-0.036,1.516-0.022,3.034-0.009,4.552
		c0.008,0.861,0.835,0.835,1.333,1.069c0.932,0.438,1.325,1.04,1.287,2.091c-0.072,1.939-0.02,3.882-0.02,5.858
		C54.161,65.393,55.83,65.393,57.539,65.393z"/>
	<path fill="#FFA502" d="M31.528,41.992c-5.707-0.012-10.398-4.726-10.381-10.431c0.017-5.756,4.725-10.422,10.495-10.402
		c5.693,0.02,10.356,4.743,10.339,10.474C41.963,37.335,37.251,42.005,31.528,41.992z M39.376,31.566
		c-0.005-4.302-3.503-7.789-7.822-7.8c-4.25-0.011-7.789,3.501-7.8,7.742c-0.012,4.363,3.484,7.884,7.823,7.881
		C35.876,39.385,39.381,35.869,39.376,31.566z"/>
	<path fill="#FFA502" d="M78.434,83.169c-1.303,0.912-2.573,1.786-3.825,2.684c-0.583,0.418-1.163,0.604-1.782,0.126
		c-0.614-0.474-0.593-1.088-0.357-1.759c0.432-1.224,0.819-2.464,1.261-3.684c0.145-0.399,0.087-0.622-0.273-0.863
		c-1.125-0.754-2.219-1.552-3.335-2.319c-0.586-0.403-0.973-0.898-0.733-1.637c0.238-0.734,0.831-0.918,1.548-0.908
		c1.382,0.019,2.764-0.009,4.146,0.012c0.42,0.006,0.626-0.134,0.755-0.54c0.409-1.289,0.865-2.563,1.286-3.848
		c0.216-0.659,0.603-1.101,1.332-1.09c0.687,0.01,1.07,0.432,1.278,1.057c0.426,1.283,0.879,2.558,1.285,3.848
		c0.137,0.437,0.349,0.585,0.808,0.575c1.381-0.03,2.764,0.003,4.145-0.014c0.725-0.009,1.3,0.208,1.52,0.945
		c0.21,0.703-0.156,1.186-0.714,1.574c-1.265,0.878-2.522,1.768-3.807,2.671c0.477,1.423,0.926,2.809,1.41,4.183
		c0.247,0.7,0.293,1.337-0.367,1.823c-0.633,0.466-1.208,0.233-1.783-0.179C81,84.943,79.749,84.086,78.434,83.169z M74.95,77.499
		c2.118,0.9,2.048,2.326,1.233,4.06c1.532-1.61,2.984-1.599,4.522,0.005c-0.925-1.778-0.795-3.167,1.244-4.11
		c-2.168,0.428-3.14-0.582-3.514-2.563C78.068,76.881,77.078,77.866,74.95,77.499z"/>
	<path fill="#FFA502" d="M31.483,86.261c-2.033-0.001-4.065,0.001-6.098-0.002c-1.165-0.001-1.632-0.454-1.633-1.614
		c-0.004-4.146-0.003-8.293,0.003-12.439c0.002-1.112,0.464-1.568,1.589-1.569c4.146-0.005,8.293-0.007,12.439-0.002
		c1.117,0.001,1.592,0.475,1.593,1.572c0.004,4.146,0.004,8.293,0.002,12.439c-0.001,1.15-0.472,1.613-1.634,1.614
		C35.657,86.264,33.57,86.262,31.483,86.261z M36.758,73.289c-3.494,0-6.918,0-10.344,0c0,3.474,0,6.898,0,10.302
		c3.482,0,6.906,0,10.344,0C36.758,80.142,36.758,76.756,36.758,73.289z"/>
	<path fill="#FFA502" d="M78.397,38.086c-2.492,0-4.984,0.006-7.476-0.002c-1.412-0.004-1.977-0.92-1.309-2.151
		c2.503-4.614,5.024-9.217,7.528-13.831c0.298-0.55,0.728-0.997,1.327-0.856c0.462,0.108,1.011,0.465,1.236,0.869
		c2.552,4.587,5.053,9.201,7.557,13.814c0.665,1.226,0.097,2.155-1.303,2.158c-2.519,0.006-5.038,0.002-7.558,0.002
		C78.397,38.088,78.397,38.087,78.397,38.086z M84.032,35.449c-1.871-3.43-3.698-6.779-5.598-10.261
		c-1.911,3.504-3.73,6.842-5.595,10.261C76.616,35.449,80.259,35.449,84.032,35.449z"/>
	<path fill="#FFA502" d="M18.725,80.872c-0.854,0.159-1.619,0.301-2.536,0.472c-0.101-0.962-0.197-1.871-0.298-2.837
		c0.934,0,1.733,0,2.604,0C18.572,79.291,18.648,80.073,18.725,80.872z"/>
	<path fill="#FFA502" d="M65.365,31.649c0.081,0.76,0.16,1.502,0.248,2.333c-0.807,0.161-1.588,0.316-2.543,0.506
		c-0.105-0.95-0.206-1.86-0.315-2.839C63.689,31.649,64.509,31.649,65.365,31.649z"/>
	<path fill="#FFA502" d="M79.835,16.001c0.969,0.168,1.858,0.322,2.829,0.49c-0.249,0.891-0.471,1.684-0.703,2.514
		c-0.808-0.15-1.562-0.289-2.356-0.436C79.681,17.71,79.753,16.914,79.835,16.001z"/>
	<path fill="#FFA502" d="M72.582,66.777c-0.677,0.423-1.313,0.821-2.037,1.274c-0.509-0.67-1.018-1.341-1.575-2.074
		c0.836-0.52,1.605-0.997,2.445-1.52C71.83,65.283,72.201,66.02,72.582,66.777z"/>
	<path fill="#FFA502" d="M23.676,21.184c-0.535-0.704-1.024-1.345-1.572-2.066c0.809-0.514,1.572-0.998,2.431-1.542
		c0.405,0.8,0.776,1.534,1.175,2.322C25.038,20.323,24.389,20.733,23.676,21.184z"/>
	<path fill="#FFA502" d="M23.678,68.059c-0.536-0.707-1.024-1.35-1.572-2.073c0.805-0.512,1.568-0.997,2.423-1.541
		c0.409,0.8,0.783,1.533,1.184,2.319C25.038,67.194,24.39,67.607,23.678,68.059z"/>
	<path fill="#FFA502" d="M70.549,21.189c-0.533-0.703-1.02-1.346-1.571-2.072c0.802-0.511,1.563-0.995,2.414-1.538
		c0.41,0.796,0.787,1.526,1.193,2.313C71.912,20.321,71.264,20.733,70.549,21.189z"/>
	<path fill="#FFA502" d="M35.8,63.361c-0.264,0.93-0.483,1.701-0.713,2.513c-0.8-0.147-1.554-0.286-2.352-0.433
		c0.076-0.854,0.146-1.649,0.227-2.566C33.928,63.041,34.816,63.193,35.8,63.361z"/>
	<path fill="#FFA502" d="M62.757,78.501c0.955,0,1.754,0,2.599,0c0.084,0.759,0.165,1.5,0.258,2.349
		c-0.813,0.159-1.613,0.316-2.554,0.501C62.958,80.387,62.863,79.493,62.757,78.501z"/>
	<path fill="#FFA502" d="M18.742,34c-0.871,0.16-1.636,0.301-2.552,0.469c-0.1-0.959-0.195-1.869-0.296-2.835
		c0.933,0,1.732,0,2.592,0C18.569,32.399,18.651,33.161,18.742,34z"/>
	<path fill="#FFA502" d="M35.088,19.012c-0.842-0.159-1.576-0.297-2.352-0.444c0.074-0.854,0.144-1.65,0.224-2.568
		c0.968,0.169,1.856,0.324,2.836,0.495C35.547,17.378,35.325,18.17,35.088,19.012z"/>
	<path fill="#FFA502" d="M84.249,43.252c0.393,0.779,0.754,1.496,1.172,2.326c-0.895,0.353-1.754,0.692-2.676,1.056
		c-0.254-0.868-0.48-1.638-0.727-2.483C82.736,43.861,83.448,43.574,84.249,43.252z"/>
	<path fill="#FFA502" d="M81.963,65.884c-0.837-0.158-1.573-0.296-2.357-0.444c0.074-0.843,0.143-1.639,0.224-2.564
		c0.962,0.165,1.848,0.317,2.834,0.486C82.42,64.243,82.2,65.034,81.963,65.884z"/>
	<path fill="#FFA502" d="M85.418,92.447c-0.898,0.357-1.736,0.69-2.664,1.059c-0.256-0.865-0.488-1.648-0.739-2.495
		c0.742-0.293,1.455-0.574,2.24-0.884C84.633,90.882,85.001,91.616,85.418,92.447z"/>
	<path fill="#FFA502" d="M37.379,90.124c0.394,0.783,0.755,1.5,1.171,2.326c-0.897,0.352-1.757,0.69-2.678,1.052
		c-0.254-0.871-0.479-1.64-0.725-2.481C35.87,90.73,36.582,90.444,37.379,90.124z"/>
	<path fill="#FFA502" d="M38.548,45.574c-0.888,0.354-1.725,0.688-2.664,1.062c-0.256-0.859-0.489-1.641-0.742-2.489
		c0.735-0.294,1.448-0.578,2.235-0.893C37.755,44.003,38.126,44.738,38.548,45.574z"/>
	<path fill="#FFA502" d="M77.238,91.476c0.85,0,1.575,0,2.403,0c0.081,0.821,0.162,1.634,0.25,2.524c-0.977,0-1.879,0-2.862,0
		C77.101,93.129,77.167,92.333,77.238,91.476z"/>
	<path fill="#FFA502" d="M30.153,93.997c0.078-0.902,0.145-1.677,0.216-2.495c0.8,0,1.544,0,2.4,0
		c0.079,0.789,0.161,1.602,0.251,2.495C32.049,93.997,31.147,93.997,30.153,93.997z"/>
	<path fill="#FFA502" d="M37.348,19.87c0.388-0.784,0.751-1.52,1.151-2.33c0.831,0.51,1.601,0.984,2.447,1.503
		c-0.548,0.734-1.038,1.39-1.556,2.084C38.716,20.711,38.084,20.323,37.348,19.87z"/>
	<path fill="#FFA502" d="M85.369,17.526c0.865,0.54,1.631,1.018,2.452,1.531c-0.561,0.745-1.056,1.403-1.56,2.072
		c-0.7-0.431-1.334-0.822-2.039-1.256C84.591,19.115,84.953,18.375,85.369,17.526z"/>
	<path fill="#FFA502" d="M88.048,22.758c0.628-0.58,1.219-1.125,1.907-1.76c0.582,0.751,1.144,1.477,1.765,2.278
		c-0.777,0.489-1.471,0.926-2.2,1.385C89.024,24.02,88.568,23.43,88.048,22.758z"/>
	<path fill="#FFA502" d="M20.446,24.73c-0.729-0.45-1.43-0.882-2.208-1.362c0.588-0.786,1.129-1.509,1.727-2.307
		c0.676,0.612,1.285,1.162,1.927,1.743C21.396,23.466,20.934,24.08,20.446,24.73z"/>
	<path fill="#FFA502" d="M43.722,26.815c0.804-0.314,1.57-0.613,2.422-0.945c0.27,0.939,0.52,1.808,0.793,2.755
		c-0.886,0.174-1.673,0.329-2.544,0.501C44.173,28.366,43.959,27.631,43.722,26.815z"/>
	<path fill="#FFA502" d="M91.27,33.986c0.08-0.818,0.152-1.561,0.231-2.375c0.816,0,1.637,0,2.589,0
		c-0.081,0.896-0.162,1.791-0.254,2.811C92.957,34.272,92.173,34.139,91.27,33.986z"/>
	<path fill="#FFA502" d="M67.348,38.458c-0.742,0.461-1.426,0.887-2.204,1.371c-0.438-0.859-0.847-1.663-1.308-2.568
		c0.865-0.335,1.633-0.633,2.43-0.942C66.627,37.034,66.966,37.703,67.348,38.458z"/>
	<path fill="#FFA502" d="M77.03,47.126c0.074-0.875,0.142-1.673,0.212-2.504c0.812,0,1.56,0,2.403,0
		c0.078,0.808,0.157,1.622,0.242,2.504C78.903,47.126,78.001,47.126,77.03,47.126z"/>
	<path fill="#FFA502" d="M30.365,44.605c0.848,0,1.573,0,2.404,0c0.081,0.819,0.162,1.632,0.251,2.524c-0.974,0-1.876,0-2.857,0
		C30.233,46.261,30.296,45.465,30.365,44.605z"/>
	<path fill="#FFA502" d="M44.851,70.155c-0.816,0.507-1.495,0.93-2.207,1.373c-0.494-0.639-0.949-1.23-1.46-1.891
		c0.602-0.561,1.203-1.123,1.9-1.773C43.668,68.621,44.229,69.348,44.851,70.155z"/>
	<path fill="#FFA502" d="M37.348,66.737c0.384-0.776,0.749-1.513,1.151-2.326c0.828,0.508,1.598,0.981,2.446,1.501
		c-0.545,0.732-1.034,1.389-1.553,2.086C38.701,67.572,38.053,67.172,37.348,66.737z"/>
	<path fill="#FFA502" d="M85.367,64.407c0.834,0.516,1.62,1.002,2.458,1.521c-0.567,0.748-1.064,1.405-1.57,2.073
		c-0.699-0.435-1.332-0.828-2.038-1.267C84.591,65.979,84.955,65.24,85.367,64.407z"/>
	<path fill="#FFA502" d="M21.898,69.679c-0.497,0.662-0.947,1.26-1.444,1.921c-0.707-0.435-1.405-0.864-2.208-1.358
		c0.567-0.766,1.102-1.488,1.715-2.315C20.638,68.54,21.261,69.103,21.898,69.679z"/>
	<path fill="#FFA502" d="M65.106,70.238c0.592-0.791,1.122-1.498,1.728-2.307c0.674,0.609,1.298,1.172,1.933,1.745
		c-0.499,0.664-0.948,1.262-1.445,1.923C66.614,71.165,65.916,70.736,65.106,70.238z"/>
	<path fill="#FFA502" d="M43.719,73.686c0.816-0.319,1.563-0.612,2.414-0.945c0.273,0.922,0.529,1.788,0.812,2.746
		c-0.894,0.179-1.703,0.341-2.552,0.511C44.169,75.227,43.96,74.511,43.719,73.686z"/>
	<path fill="#FFA502" d="M47.234,78.47c-0.093,0.938-0.181,1.833-0.279,2.826c-0.894-0.156-1.68-0.293-2.544-0.445
		c0.073-0.801,0.143-1.563,0.217-2.382C45.456,78.47,46.258,78.47,47.234,78.47z"/>
	<path fill="#FFA502" d="M94.109,78.483c-0.094,0.932-0.182,1.807-0.282,2.804c-0.888-0.151-1.692-0.288-2.553-0.434
		c0.078-0.812,0.149-1.556,0.227-2.37C92.314,78.483,93.135,78.483,94.109,78.483z"/>
	<path fill="#FFA502" d="M19.379,26.895c-0.221,0.776-0.425,1.492-0.653,2.289c-0.809-0.14-1.595-0.276-2.537-0.439
		c0.252-0.939,0.489-1.823,0.747-2.787C17.811,26.293,18.579,26.588,19.379,26.895z"/>
	<path fill="#FFA502" d="M19.394,83.193c0.364,0.719,0.703,1.388,1.079,2.133c-0.71,0.447-1.408,0.886-2.197,1.383
		c-0.442-0.87-0.851-1.675-1.308-2.576C17.833,83.798,18.602,83.5,19.394,83.193z"/>
	<path fill="#FFA502" d="M43.738,83.159c0.794,0.31,1.544,0.602,2.416,0.942c-0.422,0.86-0.819,1.671-1.264,2.578
		c-0.778-0.479-1.477-0.91-2.22-1.367C43.023,84.598,43.355,83.929,43.738,83.159z"/>
	<path fill="#FFA502" d="M88.048,69.626c0.633-0.585,1.224-1.13,1.906-1.759c0.584,0.757,1.145,1.485,1.758,2.279
		c-0.78,0.491-1.473,0.928-2.198,1.384C89.017,70.884,88.562,70.293,88.048,69.626z"/>
	<path fill="#FFA502" d="M66.27,83.189c0.375,0.748,0.7,1.397,1.074,2.143c-0.693,0.433-1.391,0.869-2.198,1.374
		c-0.438-0.858-0.847-1.66-1.31-2.566C64.691,83.806,65.456,83.507,66.27,83.189z"/>
	<path fill="#FFA502" d="M93.821,28.624c-0.937,0.181-1.726,0.334-2.557,0.495c-0.223-0.763-0.432-1.479-0.674-2.307
		c0.781-0.305,1.545-0.603,2.414-0.942C93.276,26.79,93.533,27.656,93.821,28.624z"/>
	<path fill="#FFA502" d="M90.608,36.291c0.795,0.31,1.544,0.602,2.415,0.941c-0.422,0.86-0.82,1.67-1.264,2.576
		c-0.777-0.478-1.476-0.909-2.219-1.366C89.895,37.728,90.227,37.059,90.608,36.291z"/>
	<path fill="#FFA502" d="M66.844,21.06c0.706,0.647,1.298,1.19,1.916,1.757c-0.496,0.659-0.96,1.275-1.443,1.917
		c-0.737-0.457-1.44-0.892-2.213-1.371C65.697,22.578,66.243,21.856,66.844,21.06z"/>
	<path fill="#FFA502" d="M93.825,75.489c-0.917,0.18-1.705,0.334-2.564,0.503c-0.221-0.768-0.433-1.504-0.663-2.304
		c0.788-0.311,1.533-0.605,2.4-0.946C93.269,73.644,93.528,74.505,93.825,75.489z"/>
	<path fill="#FFA502" d="M16.163,75.605c0.28-0.979,0.528-1.844,0.794-2.771c0.854,0.328,1.603,0.615,2.413,0.926
		c-0.207,0.745-0.404,1.458-0.638,2.299C17.928,75.917,17.125,75.775,16.163,75.605z"/>
	<path fill="#FFA502" d="M63.818,72.822c0.9,0.351,1.646,0.641,2.431,0.947c-0.217,0.766-0.42,1.481-0.649,2.29
		c-0.828-0.146-1.635-0.289-2.556-0.452C63.307,74.66,63.549,73.79,63.818,72.822z"/>
	<path fill="#FFA502" d="M44.881,39.808c-0.782-0.484-1.469-0.908-2.207-1.364c0.357-0.724,0.697-1.413,1.061-2.151
		c0.778,0.3,1.529,0.589,2.415,0.93C45.721,38.099,45.314,38.927,44.881,39.808z"/>
	<path fill="#FFA502" d="M18.274,39.838c-0.446-0.878-0.846-1.667-1.303-2.567c0.838-0.33,1.603-0.631,2.417-0.951
		c0.357,0.698,0.696,1.363,1.092,2.139C19.794,38.887,19.097,39.323,18.274,39.838z"/>
	<path fill="#FFA502" d="M46.968,34.429c-0.921-0.162-1.706-0.3-2.561-0.45c0.072-0.791,0.141-1.534,0.216-2.358
		c0.805,0,1.627,0,2.591,0C47.138,32.486,47.06,33.38,46.968,34.429z"/>
	<path fill="#FFA502" d="M43.088,20.995c0.578,0.749,1.132,1.466,1.759,2.279c-0.753,0.474-1.445,0.91-2.196,1.383
		c-0.492-0.633-0.961-1.238-1.475-1.899C41.802,22.18,42.409,21.621,43.088,20.995z"/>
	<path fill="#FFA502" d="M63.813,25.957c0.875,0.336,1.623,0.623,2.428,0.933c-0.208,0.748-0.406,1.461-0.639,2.298
		c-0.808-0.143-1.612-0.285-2.55-0.45C63.307,27.81,63.543,26.943,63.813,25.957z"/>
	<path fill="#FFA502" d="M89.535,85.306c0.383-0.762,0.71-1.413,1.077-2.144c0.77,0.298,1.537,0.596,2.414,0.935
		c-0.43,0.877-0.829,1.69-1.268,2.583C90.973,86.195,90.272,85.761,89.535,85.306z"/>
	<path fill="#FFA502" d="M76.934,16.005c0.088,0.919,0.165,1.716,0.247,2.569c-0.798,0.156-1.529,0.299-2.348,0.459
		c-0.233-0.805-0.46-1.593-0.723-2.502C75.092,16.349,75.974,16.184,76.934,16.005z"/>
	<path fill="#FFA502" d="M27.293,46.645c-0.933-0.363-1.756-0.684-2.682-1.045c0.406-0.823,0.77-1.561,1.149-2.327
		c0.753,0.289,1.454,0.558,2.238,0.859C27.775,44.928,27.553,45.72,27.293,46.645z"/>
	<path fill="#FFA502" d="M30.066,62.861c0.09,0.968,0.163,1.764,0.239,2.59c-0.804,0.155-1.514,0.293-2.34,0.452
		c-0.227-0.777-0.457-1.564-0.728-2.492C28.198,63.224,29.08,63.053,30.066,62.861z"/>
	<path fill="#FFA502" d="M76.941,62.87c0.087,0.948,0.159,1.746,0.235,2.572c-0.792,0.157-1.504,0.297-2.344,0.463
		c-0.227-0.791-0.458-1.598-0.718-2.505C75.089,63.218,75.956,63.055,76.941,62.87z"/>
	<path fill="#FFA502" d="M24.605,92.475c0.432-0.864,0.792-1.585,1.164-2.329c0.752,0.289,1.453,0.559,2.231,0.858
		c-0.227,0.805-0.45,1.598-0.703,2.498C26.389,93.156,25.547,92.835,24.605,92.475z"/>
	<path fill="#FFA502" d="M72.638,43.269c0.787,0.307,1.485,0.58,2.236,0.873c-0.238,0.83-0.466,1.622-0.718,2.502
		c-0.923-0.362-1.765-0.693-2.669-1.047C71.897,44.768,72.253,44.048,72.638,43.269z"/>
	<path fill="#FFA502" d="M71.484,92.469c0.405-0.819,0.759-1.537,1.146-2.319c0.745,0.284,1.461,0.557,2.246,0.856
		c-0.234,0.819-0.459,1.612-0.714,2.503C73.244,93.153,72.403,92.826,71.484,92.469z"/>
	<path fill="#FFA502" d="M27.234,16.531c0.99-0.185,1.858-0.348,2.826-0.529c0.087,0.909,0.165,1.726,0.246,2.57
		c-0.797,0.157-1.508,0.297-2.334,0.46C27.744,18.259,27.512,17.474,27.234,16.531z"/>
	<path fill="#FFA502" d="M41.008,44.07c-0.579-0.772-1.058-1.412-1.559-2.08c0.596-0.55,1.144-1.056,1.756-1.62
		c0.615,0.554,1.224,1.103,1.928,1.737C42.428,42.757,41.754,43.38,41.008,44.07z"/>
	<path fill="#FFA502" d="M87.876,44.071c-0.57-0.762-1.052-1.407-1.557-2.081c0.599-0.552,1.151-1.06,1.758-1.62
		c0.627,0.565,1.242,1.12,1.926,1.737C89.299,42.757,88.63,43.375,87.876,44.071z"/>
	<path fill="#FFA502" d="M41.214,87.237c0.659,0.603,1.254,1.148,1.914,1.752c-0.711,0.652-1.382,1.266-2.124,1.945
		c-0.558-0.741-1.054-1.399-1.564-2.075C40.058,88.295,40.613,87.787,41.214,87.237z"/>
	<path fill="#FFA502" d="M87.886,90.941c-0.566-0.748-1.051-1.389-1.569-2.074c0.587-0.544,1.136-1.053,1.756-1.627
		c0.615,0.554,1.228,1.107,1.925,1.735C89.305,89.619,88.642,90.237,87.886,90.941z"/>
	<path fill="#FFA502" d="M66.895,42.142c0.667-0.617,1.255-1.161,1.895-1.753c0.588,0.528,1.159,1.041,1.794,1.612
		c-0.516,0.683-1.009,1.338-1.568,2.078C68.285,43.411,67.619,42.803,66.895,42.142z"/>
	<path fill="#FFA502" d="M66.894,89.015c0.694-0.642,1.267-1.172,1.898-1.755c0.583,0.525,1.152,1.038,1.791,1.613
		c-0.511,0.678-1.005,1.333-1.564,2.075C68.292,90.287,67.624,89.68,66.894,89.015z"/>
	<path fill="#FFA502" d="M20.014,89.023c0.691-0.639,1.28-1.184,1.906-1.763c0.587,0.525,1.144,1.024,1.79,1.602
		c-0.493,0.662-0.982,1.321-1.548,2.081C21.447,90.305,20.776,89.704,20.014,89.023z"/>
	<path fill="#FFA502" d="M23.713,42.001c-0.526,0.699-1.008,1.34-1.56,2.075c-0.72-0.65-1.389-1.255-2.136-1.93
		c0.672-0.623,1.274-1.18,1.903-1.763C22.522,40.925,23.078,41.427,23.713,42.001z"/>
	<path fill="#FFA502" d="M53.761,51.135c0.839,0,1.641,0,2.541,0c0,0.666,0,1.306,0,1.946c0,0.616,0,1.232,0,1.889
		c-0.871,0-1.674,0-2.541,0C53.761,53.73,53.761,52.475,53.761,51.135z"/>
	<path fill="#FFA502" d="M31.522,28.927c-1.528,0.205-2.402,1.086-2.61,2.626c-0.839,0-1.643,0-2.443,0
		c-0.39-2.117,1.886-5.261,5.053-5.137C31.522,27.241,31.522,28.068,31.522,28.927z"/>
</g>
</svg>
