<?xml version="1.0" encoding="utf-8"?>
<!-- Generator: Adobe Illustrator 17.0.0, SVG Export Plug-In . SVG Version: 6.00 Build 0)  -->
<!DOCTYPE svg PUBLIC "-//W3C//DTD SVG 1.1//EN" "http://www.w3.org/Graphics/SVG/1.1/DTD/svg11.dtd">
<svg version="1.1" id="Layer_1" xmlns="http://www.w3.org/2000/svg" xmlns:xlink="http://www.w3.org/1999/xlink" x="0px" y="0px"
	 width="110px" height="110px" viewBox="0 0 110 110" enable-background="new 0 0 110 110" xml:space="preserve">
<path opacity="0.1" fill="#34C259" d="M83.508,11.421c13.535,8.854,17.329,27.004,8.475,40.539L67.031,90.103
	c-8.854,13.535-27.004,17.329-40.539,8.475l0,0c-13.535-8.854-17.33-27.004-8.475-40.539l24.952-38.143
	C51.823,6.362,69.973,2.567,83.508,11.421L83.508,11.421z"/>
<g>
	<path fill="#34C259" d="M93.997,94c-15.146,0-30.181,0-45.27,0c-0.012-0.259-0.03-0.487-0.031-0.716
		c-0.002-2.936-0.007-5.871-0.001-8.807c0.008-4.165,2.547-7.537,6.531-8.689c3.041-0.879,6.082-1.759,9.123-2.64
		c0.224-0.065,0.446-0.138,0.704-0.218c0-0.73,0.015-1.436-0.01-2.141c-0.007-0.187-0.089-0.41-0.213-0.549
		c-0.71-0.796-1.443-1.572-2.145-2.329c-1.511,0.915-3.023,1.953-4.639,2.792C40.89,79.61,19.683,69.039,16.431,49.982
		c-2.669-15.639,7.406-30.317,22.951-33.435c13.875-2.784,28.075,5.314,32.751,18.705c0.25,0.716,0.572,0.994,1.348,1.084
		c6.452,0.748,12.16,6.413,12.782,12.851c0.271,2.806,0.142,5.652,0.182,8.48c0.017,1.205,0.012,2.411,0.001,3.617
		c-0.025,2.839-2.195,5.037-5.028,5.051c-0.546,0.003-0.783,0.196-1.062,0.654c-0.581,0.955-1.216,1.903-1.978,2.712
		c-0.506,0.537-0.783,1.006-0.754,1.755c0.057,1.492,0.014,1.497,1.433,1.908c2.79,0.807,5.582,1.607,8.371,2.415
		c4.048,1.174,6.568,4.524,6.571,8.735C93.999,87.655,93.997,90.795,93.997,94z M64.908,37.424c0.032,0.109,0.009,0.008-0.027-0.089
		c-3.515-9.315-13.089-14.99-22.907-13.579C29.639,25.529,21.4,37.324,24.01,49.476C27.01,63.45,42.797,70.615,55.249,63.664
		c0.787-0.439,1.531-0.825,1.018-1.928c-0.061-0.131-0.022-0.311-0.022-0.468c0-4.561-0.043-9.123,0.017-13.683
		c0.035-2.652,1.324-4.625,3.647-5.915c0.25-0.139,0.518-0.262,0.73-0.448C62.025,40.003,63.399,38.77,64.908,37.424z M83.93,56.791
		c0-1.772-0.002-3.599,0.001-5.426c0.004-2.559-0.683-4.922-2.098-7.047c-4.406-6.618-14.156-7.931-19.479-1.217
		c-0.197,0.249-0.506,0.449-0.804,0.573c-1.787,0.744-2.78,2.197-2.786,4.157c-0.006,1.992-0.001,3.984-0.001,5.976
		c0,1.013,0,2.027,0,3.041c0.857-0.237,1.652-0.456,2.517-0.695c0-0.154-0.004-0.359,0.001-0.564
		c0.044-2.17,1.456-3.868,3.565-4.277c1.11-0.215,2.131,0.07,3.097,0.599c2.06,1.128,4.139,2.14,6.608,1.87
		c0.907-0.099,1.833,0.002,2.75-0.02c1.682-0.04,2.924,0.653,3.728,2.139c0.085,0.156,0.26,0.327,0.423,0.367
		C82.255,56.462,83.068,56.614,83.93,56.791z M69.751,36.213c-2.783-8.791-11.914-17.272-23.838-17.652
		c-12.55-0.4-23.334,7.676-26.564,19.722c-3.123,11.646,2.358,24.189,13.049,29.943c10.205,5.492,21.673,3.115,27.875-1.909
		c-0.564-0.26-1.227-0.436-1.721-0.826c-0.573-0.451-0.956-0.326-1.507,0.001c-4.688,2.785-9.758,3.873-15.164,3.177
		c-13.32-1.715-22.594-14.038-20.59-27.303c1.487-9.848,9.119-17.904,18.785-19.83c10.087-2.01,20.068,2.352,25.287,11.094
		c0.773,1.295,1.384,2.688,2.09,4.076C68.168,36.553,68.93,36.389,69.751,36.213z M63.797,59.374c0,1.127-0.016,2.253,0.003,3.38
		c0.066,3.827,3.132,7.07,6.939,7.355c3.865,0.289,7.454-2.356,7.974-6.157c0.296-2.162,0.17-4.388,0.145-6.584
		c-0.008-0.712-0.581-1.078-1.31-1.083c-0.996-0.006-1.995,0.057-2.986-0.016c-1.426-0.105-2.894-0.13-4.253-0.513
		c-1.34-0.378-2.561-1.169-3.842-1.761c-1.369-0.633-2.644,0.172-2.666,1.686C63.781,56.911,63.796,58.143,63.797,59.374z
		 M61.616,76.538c-2.26,0.682-4.522,1.182-6.633,2.05c-2.43,0.999-3.697,3.02-3.76,5.678c-0.052,2.199-0.012,4.401-0.008,6.602
		c0,0.2,0.031,0.4,0.047,0.59c1.685,0,3.318,0,5.007,0c0-2.093,0-4.127,0-6.183c0.852,0,1.646,0,2.525,0c0,2.102,0,4.156,0,6.242
		c2.519,0,4.954,0.013,7.388-0.022c0.216-0.003,0.545-0.27,0.623-0.486c0.592-1.649,1.144-3.312,1.678-4.981
		c0.065-0.204,0.03-0.524-0.094-0.691c-0.372-0.502-0.811-0.955-1.223-1.426c-1.015,0.793-1.884,1.471-2.809,2.194
		C63.425,82.849,62.533,79.739,61.616,76.538z M86.477,85.262c0,2.114,0,4.167,0,6.216c1.7,0,3.314,0,5.002,0
		c0-2.442,0.038-4.846-0.011-7.248c-0.051-2.493-1.198-4.493-3.443-5.479c-2.202-0.967-4.595-1.5-6.945-2.236
		c-0.935,3.259-1.831,6.383-2.755,9.604c-0.96-0.759-1.812-1.434-2.785-2.203c-0.351,0.406-0.642,0.821-1.01,1.147
		c-0.389,0.345-0.46,0.658-0.282,1.155c0.547,1.526,1.064,3.064,1.53,4.617c0.17,0.566,0.451,0.702,1.003,0.694
		c2.148-0.03,4.297-0.011,6.445-0.014c0.224,0,0.449-0.028,0.725-0.047c0-2.101,0-4.136,0-6.205
		C84.784,85.262,85.56,85.262,86.477,85.262z M75.044,71.939c-2.457,0.953-4.936,0.924-7.521-0.032
		c0.06,0.6-0.074,1.245,0.187,1.534c1.147,1.273,2.408,2.444,3.673,3.698c1.02-1.029,1.949-2.062,2.983-2.977
		C75.063,73.545,75.274,72.881,75.044,71.939z M69.474,78.819c-1.12-1.111-2.205-2.201-3.312-3.269
		c-0.117-0.113-0.374-0.161-0.541-0.124c-0.504,0.11-0.996,0.277-1.57,0.445c0.568,1.983,1.121,3.909,1.698,5.924
		C67.036,80.766,68.218,79.822,69.474,78.819z M78.641,75.868c-0.529-0.152-0.994-0.31-1.471-0.41
		c-0.197-0.042-0.497-0.039-0.62,0.079c-1.112,1.063-2.196,2.156-3.331,3.284c1.262,1.007,2.457,1.961,3.726,2.974
		C77.522,79.777,78.071,77.859,78.641,75.868z M69.334,91.49c1.374,0,2.652,0,4.022,0c-0.532-1.61-1.041-3.171-1.576-4.724
		c-0.043-0.125-0.269-0.269-0.4-0.26c-0.167,0.012-0.423,0.137-0.47,0.272C70.371,88.327,69.865,89.886,69.334,91.49z M61.247,63.82
		c0-1.68,0-3.333,0-4.989c-1.448,0.102-2.438,1.078-2.482,2.39C58.718,62.601,59.676,63.639,61.247,63.82z M81.427,63.759
		c1.337,0.058,2.446-0.986,2.5-2.341c0.056-1.414-1.015-2.537-2.5-2.572C81.427,60.485,81.427,62.122,81.427,63.759z M73.599,82.352
		c-0.67-0.537-1.289-1.06-1.942-1.535c-0.138-0.1-0.465-0.114-0.597-0.019c-0.671,0.487-1.306,1.023-1.949,1.54
		C70.651,84.453,71.832,84.695,73.599,82.352z"/>
	<path fill="#34C259" d="M44.903,76.474c0,0.819,0,1.576,0,2.445c-5.11-0.003-9.954-1.083-14.555-3.261
		c-4.59-2.173-8.48-5.252-11.81-9.301c0,1.32,0,2.479,0,3.702c-0.86,0-1.656,0-2.507,0c0-3.892,0-7.805,0-11.899
		c0.238,0.359,0.407,0.598,0.56,0.847c1.895,3.085,3.871,6.104,6.524,8.618c5.34,5.063,11.657,7.967,18.991,8.64
		C43.013,76.351,43.924,76.403,44.903,76.474z"/>
	<path fill="#34C259" d="M43.66,26.099c0.887,0,1.644,0,2.519,0c0,0.319,0,0.621,0,0.922c0,4.532,0.005,9.065-0.009,13.597
		c-0.002,0.508,0.081,0.818,0.604,1.096c1.69,0.897,2.353,2.905,1.637,4.661c-0.717,1.757-2.572,2.712-4.422,2.212
		c-0.488-0.132-0.742-0.011-1.051,0.347c-2.346,2.713-4.714,5.407-7.127,8.167c-0.634-0.547-1.239-1.07-1.903-1.643
		c1.54-1.762,3.048-3.489,4.558-5.215c0.897-1.025,1.784-2.06,2.699-3.068c0.3-0.33,0.35-0.598,0.196-1.04
		c-0.6-1.726,0.106-3.567,1.718-4.431c0.474-0.254,0.596-0.523,0.594-1.022c-0.018-4.559-0.011-9.117-0.011-13.676
		C43.66,26.723,43.66,26.44,43.66,26.099z M46.175,45.018c0.034-0.672-0.499-1.268-1.175-1.314
		c-0.672-0.046-1.277,0.478-1.332,1.153c-0.057,0.702,0.505,1.331,1.211,1.355C45.553,46.235,46.141,45.693,46.175,45.018z"/>
	<path fill="#34C259" d="M38.592,43.752c0,0.834,0,1.608,0,2.423c-0.809,0-1.584,0-2.42,0c0-0.78,0-1.574,0-2.423
		C36.946,43.752,37.739,43.752,38.592,43.752z"/>
	<path fill="#34C259" d="M51.257,43.737c0.802,0,1.576,0,2.412,0c0,0.785,0,1.578,0,2.425c-0.779,0-1.572,0-2.412,0
		C51.257,45.362,51.257,44.57,51.257,43.737z"/>
</g>
</svg>
