<?xml version="1.0" encoding="utf-8"?>
<!-- Generator: Adobe Illustrator 17.0.0, SVG Export Plug-In . SVG Version: 6.00 Build 0)  -->
<!DOCTYPE svg PUBLIC "-//W3C//DTD SVG 1.1//EN" "http://www.w3.org/Graphics/SVG/1.1/DTD/svg11.dtd">
<svg version="1.1" id="Layer_1" xmlns="http://www.w3.org/2000/svg" xmlns:xlink="http://www.w3.org/1999/xlink" x="0px" y="0px"
	 width="110px" height="110px" viewBox="0 0 110 110" enable-background="new 0 0 110 110" xml:space="preserve">
<path opacity="0.1" fill="#F2661E" d="M83.508,11.421c13.535,8.854,17.329,27.004,8.475,40.539L67.031,90.103
	c-8.854,13.535-27.004,17.329-40.539,8.475l0,0c-13.535-8.854-17.33-27.004-8.475-40.539l24.952-38.143
	C51.823,6.362,69.973,2.567,83.508,11.421L83.508,11.421z"/>
<g>
	<path fill="#F2661E" d="M54.996,18.213c1.385-1.834,3.134-2.212,5.098-2.206C70.238,16.034,80.383,16.048,90.527,16
		c2.802-0.013,4.976,0.746,5.979,3.632c0.09,0.258,0.688,0.474,1.054,0.48c2.669,0.04,5.339,0.022,8.008,0.021
		c2.245-0.001,2.248-0.002,2.248,2.189c0.001,18.509,0.001,37.018,0.001,55.528c0,1.29,0.006,2.581-0.001,3.871
		c-0.01,1.591-0.143,1.72-1.779,1.72c-13.837,0.002-27.675,0.002-41.512,0.002c-20.111,0-40.222,0-60.333-0.002
		c-1.964,0-2.011-0.049-2.011-2.025c0-19.711,0-39.421,0.001-59.132c0-2.148,0.004-2.15,2.153-2.151
		c2.67-0.002,5.34,0.028,8.008-0.028c0.419-0.009,1.079-0.304,1.206-0.63c0.952-2.448,2.762-3.463,5.293-3.459
		c5.562,0.01,11.123,0.001,16.685,0.001c4.716,0,9.433,0.031,14.149-0.011C51.716,15.987,53.583,16.282,54.996,18.213z
		 M94.948,42.311c-0.005,0-0.01,0-0.016,0c0-6.895,0.015-13.79-0.007-20.685c-0.009-2.86-1.106-3.906-3.982-3.908
		c-7.918-0.005-15.837-0.002-23.755-0.002c-2.669,0-5.339-0.025-8.007,0.014c-1.913,0.028-3.277,1.335-3.278,3.141
		c-0.005,14.235-0.002,28.47,0.024,42.705c0.004,2.419,1.226,3.579,3.634,3.58c10.365,0.006,20.731-0.059,31.095,0.041
		c3.158,0.031,4.347-1.479,4.317-4.335C94.898,56.012,94.948,49.161,94.948,42.311z M15.104,42.26c-0.01,0-0.02,0-0.03,0
		c0,7.029-0.016,14.058,0.008,21.087c0.009,2.709,1.147,3.811,3.819,3.812c10.499,0.004,20.998,0.004,31.497-0.006
		c0.479,0,0.982-0.028,1.434-0.17c1.654-0.521,2.299-1.632,2.299-3.889c0.003-13.746,0.001-27.493,0.002-41.24
		c0-3.057-1.087-4.136-4.188-4.137c-4.76-0.001-9.52-0.001-14.28-0.001c-5.65,0-11.3-0.009-16.95,0.005
		c-2.438,0.006-3.612,1.199-3.612,3.587C15.104,28.292,15.104,35.276,15.104,42.26z M3.98,81.705c34.104,0,68.032,0,102.008,0
		c0-19.984,0-39.886,0-59.82c-1.838,0-3.575,0-5.503,0c1.293,1.428,1.612,2.978,1.609,4.674
		c-0.019,14.683-0.004,29.366-0.016,44.049c-0.003,4.083-2.082,6.119-6.18,6.12c-10.856,0.002-21.713,0.032-32.569-0.036
		c-1.527-0.01-3.052-0.506-4.763-0.81c-1.105,1.421-5.919,1.405-7.187-0.015c-1.619,0.315-3.022,0.816-4.428,0.824
		c-10.812,0.066-21.624,0.037-32.436,0.036c-4.66,0-6.579-1.901-6.579-6.514c0.001-13.793-0.005-27.586,0.007-41.379
		c0.002-2.402-0.42-4.9,1.561-6.943c-1.984,0-3.738,0-5.526,0C3.98,41.868,3.98,61.742,3.98,81.705z M96.676,22.348
		c0,0.586,0,1.072,0,1.559c0,13.08-0.084,26.161,0.048,39.239c0.041,4.063-2.866,5.924-5.952,5.89
		c-10.142-0.111-20.287-0.042-30.43-0.042c-0.514,0-1.029,0-1.572,0c-0.021,0.445-0.026,0.708-0.048,0.97
		c-0.316,3.818,1.588,5.007,4.812,4.974c10.765-0.112,21.533-0.115,32.298-0.001c3.496,0.037,4.562-2.053,4.555-4.52
		c-0.045-14.503-0.019-29.007-0.033-43.511c-0.001-0.749-0.054-1.521-0.242-2.241C99.727,23.192,98.433,22.33,96.676,22.348z
		 M13.332,22.251c-0.495,0.058-0.811,0.05-1.098,0.136c-1.767,0.529-2.58,1.879-2.581,4.304C9.649,41.281,9.65,55.872,9.655,70.463
		c0,0.486,0.024,0.981,0.112,1.458c0.34,1.859,1.626,2.967,3.521,2.969c11.477,0.012,22.954,0.01,34.431-0.001
		c1.712-0.002,3.134-1.004,3.425-2.59c0.193-1.051,0.037-2.165,0.037-3.304c-0.649,0-1.18,0-1.711,0
		c-10.009,0-20.018,0.002-30.027,0.001c-4.282,0-6.109-1.806-6.109-6.037c-0.001-12.989-0.001-25.979-0.001-38.968
		C13.332,23.46,13.332,22.931,13.332,22.251z M53.115,74.821c1.362,0,2.497,0,3.768,0c0-1.334-0.132-2.622,0.031-3.872
		c0.238-1.827-0.325-3.129-2.099-3.998c-0.544,0.638-1.529,1.265-1.621,2.003C52.957,70.858,53.115,72.813,53.115,74.821z"/>
	<path fill="#F2661E" d="M37.904,85.032c10.053-0.001,20.106-0.016,30.159,0.021c0.993,0.004,2.025,0.2,2.969,0.516
		c2.686,0.9,5.347,1.88,7.991,2.899c0.454,0.175,0.774,0.698,1.155,1.06c-0.362,0.337-0.666,0.824-1.094,0.986
		c-2.939,1.115-5.858,2.334-8.88,3.163c-1.666,0.457-3.522,0.291-5.292,0.292c-6.271,0.003-12.542-0.06-18.813-0.066
		c-12.943-0.012-25.885-0.001-38.828-0.007c-2.51-0.001-4.19-1.066-4.825-3.004c-0.96-2.93,1.137-5.78,4.366-5.837
		c3.246-0.057,6.494-0.022,9.741-0.023C23.669,85.032,30.786,85.034,37.904,85.032z M63.127,86.821c-15.35,0-30.524,0-45.73,0
		c0,0.626,0,1.151,0,1.728c15.263,0,30.478,0,45.73,0C63.127,87.931,63.127,87.416,63.127,86.821z M63.137,90.438
		c-15.342,0-30.528,0-45.69,0c0,0.639,0,1.187,0,1.713c15.282,0,30.466,0,45.69,0C63.137,91.547,63.137,91.032,63.137,90.438z
		 M64.943,86.998c0,1.697,0,3.406,0,5.094c4.28,0.909,7.752-1.361,11.849-2.593C72.721,88.193,69.244,86.044,64.943,86.998z
		 M11.693,86.804c-1.919,0-3.698-0.104-5.458,0.033c-1.422,0.111-2.304,1.282-2.301,2.654c0.003,1.365,0.921,2.581,2.298,2.677
		c1.798,0.126,3.611,0.031,5.461,0.031C11.693,90.351,11.693,88.629,11.693,86.804z M13.587,92.131c0.75,0,1.341,0,1.912,0
		c0-1.826,0-3.541,0-5.311c-0.679,0-1.27,0-1.912,0C13.587,88.637,13.587,90.355,13.587,92.131z"/>
	<path fill="#F2661E" d="M75.411,50.382c4.228-0.001,8.456-0.001,12.684,0.001c0.356,0,0.766-0.091,1.053,0.054
		c0.338,0.171,0.57,0.553,0.848,0.844c-0.298,0.273-0.56,0.616-0.907,0.795c-0.248,0.128-0.611,0.041-0.922,0.041
		c-8.456,0.001-16.912,0.002-25.368,0.002c-0.223,0-0.484,0.073-0.66-0.017c-0.455-0.233-0.872-0.54-1.305-0.817
		c0.453-0.301,0.902-0.856,1.36-0.863C66.599,50.357,71.005,50.383,75.411,50.382z"/>
	<path fill="#F2661E" d="M75.428,48.6c-4.227,0-8.455,0-12.682-0.002c-0.356,0-0.762,0.087-1.053-0.055
		c-0.338-0.165-0.575-0.537-0.856-0.82c0.294-0.276,0.555-0.606,0.893-0.806c0.2-0.118,0.522-0.034,0.788-0.034
		c8.588-0.001,17.177-0.002,25.765,0.004c0.396,0,0.837-0.029,1.171,0.133c0.25,0.121,0.478,0.521,0.496,0.81
		c0.013,0.212-0.292,0.57-0.524,0.643c-0.411,0.13-0.874,0.121-1.316,0.122C83.882,48.603,79.655,48.6,75.428,48.6z"/>
	<path fill="#F2661E" d="M75.329,34.529c-4.228,0-8.455,0.001-12.683-0.001c-0.355,0-0.758,0.079-1.053-0.061
		c-0.307-0.145-0.696-0.504-0.706-0.781c-0.01-0.265,0.374-0.644,0.674-0.793c0.292-0.144,0.696-0.074,1.052-0.074
		c8.544-0.003,17.089-0.002,25.633-0.003c0.045,0,0.089-0.004,0.133,0.001c0.668,0.068,1.644-0.179,1.535,0.895
		c-0.032,0.319-0.973,0.773-1.503,0.781C84.052,34.557,79.69,34.529,75.329,34.529z"/>
	<path fill="#F2661E" d="M75.367,39.881c4.272,0,8.544-0.001,12.816,0.001c0.356,0,0.756-0.085,1.054,0.05
		c0.303,0.137,0.693,0.494,0.699,0.762c0.006,0.265-0.373,0.641-0.672,0.782c-0.294,0.14-0.698,0.055-1.053,0.055
		c-8.499,0.002-16.999,0.002-25.498,0.002c-0.311,0-0.679,0.098-0.921-0.033c-0.363-0.197-0.638-0.557-0.95-0.847
		c0.303-0.255,0.58-0.679,0.914-0.731c0.739-0.114,1.508-0.042,2.264-0.042C67.802,39.881,71.584,39.881,75.367,39.881z"/>
	<path fill="#F2661E" d="M75.429,43.378c4.227,0,8.454-0.001,12.681,0c0.356,0,0.768-0.101,1.053,0.043
		c0.334,0.17,0.68,0.523,0.776,0.865c0.046,0.166-0.427,0.581-0.738,0.713c-0.304,0.13-0.7,0.052-1.056,0.052
		c-8.498,0.001-16.997,0.001-25.495,0.001c-0.178,0-0.39,0.062-0.528-0.013c-0.443-0.24-0.858-0.53-1.284-0.801
		c0.414-0.287,0.807-0.774,1.247-0.821c1.099-0.119,2.22-0.039,3.333-0.039C68.755,43.378,72.092,43.378,75.429,43.378z"/>
	<path fill="#F2661E" d="M75.428,59.132c-4.271,0-8.543,0.001-12.814-0.003c-0.399,0-0.838,0.064-1.184-0.08
		c-0.259-0.108-0.549-0.506-0.546-0.771c0.003-0.255,0.319-0.593,0.583-0.734c0.248-0.133,0.608-0.07,0.918-0.07
		c8.676-0.002,17.353-0.002,26.029-0.001c0.267,0,0.583-0.073,0.788,0.043c0.304,0.171,0.783,0.554,0.736,0.717
		c-0.098,0.34-0.444,0.69-0.778,0.858c-0.286,0.143-0.697,0.042-1.053,0.042C83.882,59.133,79.655,59.132,75.428,59.132z"/>
	<path fill="#F2661E" d="M75.428,38.034c-4.271-0.001-8.543,0.001-12.814-0.003c-0.399,0-0.838,0.061-1.183-0.085
		c-0.259-0.109-0.55-0.506-0.547-0.771c0.003-0.255,0.321-0.64,0.581-0.727c0.405-0.135,0.877-0.08,1.321-0.08
		c8.454-0.003,16.907-0.002,25.361,0c0.356,0,0.751-0.079,1.056,0.05c0.31,0.132,0.783,0.548,0.736,0.711
		c-0.098,0.342-0.443,0.693-0.777,0.862c-0.286,0.144-0.697,0.044-1.053,0.045C83.882,38.036,79.655,38.035,75.428,38.034z"/>
	<path fill="#F2661E" d="M75.334,55.631c-4.182,0-8.364,0-12.546-0.001c-0.356,0-0.759,0.096-1.055-0.039
		c-0.346-0.158-0.599-0.521-0.893-0.794c0.279-0.28,0.515-0.652,0.851-0.814c0.292-0.141,0.698-0.052,1.053-0.053
		c8.453-0.002,16.906-0.002,25.359-0.002c0.089,0,0.179-0.009,0.267,0.001c0.661,0.074,1.643-0.197,1.541,0.883
		c-0.03,0.317-0.969,0.775-1.498,0.783C84.055,55.659,79.694,55.631,75.334,55.631z"/>
	<path fill="#F2661E" d="M80.057,29.282c2.71,0,5.419-0.001,8.129,0.002c0.354,0,0.756-0.073,1.05,0.068
		c0.308,0.147,0.699,0.506,0.707,0.782c0.007,0.269-0.377,0.645-0.679,0.797c-0.29,0.146-0.694,0.079-1.048,0.079
		c-5.464,0.003-10.928,0.002-16.392,0.002c-0.178,0-0.399,0.066-0.525-0.015c-0.426-0.272-0.819-0.597-1.224-0.902
		c0.395-0.27,0.773-0.737,1.189-0.774c1.19-0.106,2.395-0.039,3.595-0.039C76.592,29.281,78.325,29.281,80.057,29.282z"/>
	<path fill="#F2661E" d="M79.933,23.924c-2.797,0.001-5.594,0.038-8.389-0.034c-0.493-0.013-1.358-0.436-1.391-0.741
		c-0.101-0.946,0.74-0.881,1.413-0.881c5.682,0,11.364-0.007,17.045,0.015c0.408,0.002,0.861,0.147,1.2,0.368
		c0.149,0.097,0.195,0.685,0.061,0.815c-0.252,0.243-0.668,0.434-1.018,0.438C85.881,23.938,82.907,23.924,79.933,23.924z"/>
	<path fill="#F2661E" d="M80.058,27.456c-2.841,0.002-5.683,0.039-8.522-0.034c-0.493-0.013-1.359-0.453-1.388-0.759
		c-0.089-0.921,0.737-0.895,1.421-0.895c5.638,0.002,11.275,0.001,16.913,0.001c0.133,0,0.303-0.051,0.393,0.011
		c0.385,0.267,0.747,0.567,1.117,0.856c-0.381,0.273-0.757,0.773-1.144,0.782C85.918,27.484,82.988,27.454,80.058,27.456z"/>
	<path fill="#F2661E" d="M68.517,62.636c-2.084-0.001-4.168,0.006-6.253-0.005c-0.602-0.003-1.37,0.134-1.406-0.783
		c-0.036-0.917,0.699-0.865,1.327-0.866c4.213-0.003,8.425-0.002,12.638-0.001c0.63,0,1.433-0.031,1.296,0.843
		c-0.052,0.333-0.869,0.757-1.352,0.777C72.688,62.686,70.601,62.637,68.517,62.636z"/>
	<path fill="#F2661E" d="M34.572,52.118c-4.263,0-8.526,0.003-12.789-0.004c-0.396-0.001-0.832,0.034-1.176-0.116
		c-0.263-0.115-0.567-0.5-0.563-0.759c0.004-0.262,0.317-0.635,0.584-0.748c0.347-0.146,0.781-0.106,1.178-0.106
		c8.526-0.004,17.052-0.003,25.579-0.002c0.31,0,0.677-0.086,0.918,0.048c0.337,0.188,0.579,0.545,0.862,0.83
		c-0.291,0.279-0.559,0.763-0.877,0.798c-1.01,0.11-2.038,0.057-3.059,0.058C41.677,52.119,38.125,52.118,34.572,52.118z"/>
	<path fill="#F2661E" d="M34.57,46.882c4.272,0,8.544-0.002,12.816,0.003c0.397,0.001,0.836-0.043,1.179,0.107
		c0.262,0.114,0.56,0.506,0.556,0.769c-0.004,0.257-0.326,0.623-0.593,0.731c-0.351,0.143-0.785,0.102-1.183,0.102
		c-8.499,0.004-16.999,0.003-25.498,0.003c-0.178,0-0.388,0.06-0.528-0.013c-0.453-0.239-0.88-0.527-1.317-0.797
		c0.451-0.302,0.897-0.86,1.352-0.867C25.759,46.856,30.165,46.882,34.57,46.882z"/>
	<path fill="#F2661E" d="M34.498,34.53c-4.228,0.001-8.455,0.001-12.683-0.001c-0.355,0-0.758,0.077-1.053-0.063
		c-0.307-0.146-0.696-0.506-0.705-0.784c-0.009-0.264,0.378-0.64,0.679-0.788c0.292-0.144,0.697-0.074,1.052-0.074
		c8.5-0.003,17-0.002,25.499-0.002c0.134,0,0.268-0.008,0.4,0.002c0.645,0.048,1.541-0.089,1.402,0.896
		c-0.046,0.329-0.891,0.772-1.375,0.778C43.31,34.554,38.904,34.529,34.498,34.53z"/>
	<path fill="#F2661E" d="M34.695,43.378c4.227,0,8.454-0.001,12.68,0.001c0.355,0,0.761-0.084,1.052,0.058
		c0.301,0.146,0.674,0.519,0.677,0.796c0.002,0.26-0.393,0.621-0.696,0.759c-0.298,0.136-0.698,0.059-1.054,0.059
		c-8.498,0.002-16.996,0.002-25.494,0.001c-0.356,0-0.751,0.077-1.056-0.052c-0.312-0.132-0.79-0.541-0.745-0.708
		c0.092-0.342,0.436-0.699,0.769-0.869c0.284-0.146,0.697-0.045,1.052-0.045C26.152,43.378,30.423,43.378,34.695,43.378z"/>
	<path fill="#F2661E" d="M34.705,57.47c4.183,0,8.365-0.001,12.548,0c0.356,0,0.761-0.095,1.054,0.043
		c0.335,0.158,0.571,0.527,0.849,0.805c-0.293,0.268-0.572,0.748-0.881,0.769c-1.329,0.089-2.667,0.045-4.002,0.045
		c-7.475,0.001-14.95,0.001-22.426-0.002c-0.4,0-0.851,0.086-1.184-0.07c-0.289-0.136-0.578-0.543-0.612-0.857
		c-0.022-0.206,0.372-0.557,0.649-0.668c0.311-0.124,0.7-0.061,1.056-0.061C26.073,57.469,30.389,57.47,34.705,57.47z"/>
	<path fill="#F2661E" d="M34.57,36.365c4.227-0.001,8.454-0.001,12.681,0c0.356,0,0.761-0.094,1.054,0.044
		c0.335,0.158,0.572,0.526,0.851,0.803c-0.293,0.27-0.558,0.726-0.884,0.774c-0.784,0.117-1.596,0.047-2.397,0.047
		c-8.009,0-16.017,0-24.026-0.002c-0.4,0-0.851,0.083-1.183-0.074c-0.29-0.137-0.579-0.543-0.615-0.859
		c-0.023-0.205,0.372-0.557,0.65-0.668c0.31-0.125,0.7-0.063,1.055-0.063C26.028,36.365,30.299,36.366,34.57,36.365z"/>
	<path fill="#F2661E" d="M34.704,39.881c4.227,0,8.455,0,12.682,0.001c0.356,0,0.761-0.086,1.053,0.054
		c0.297,0.143,0.671,0.522,0.664,0.788c-0.007,0.268-0.406,0.584-0.703,0.764c-0.199,0.12-0.52,0.045-0.787,0.045
		c-8.677,0.001-17.355,0.001-26.032-0.002c-0.311,0-0.668,0.068-0.92-0.061c-0.269-0.137-0.635-0.498-0.605-0.711
		c0.043-0.306,0.354-0.67,0.648-0.818c0.288-0.145,0.696-0.06,1.052-0.06C26.072,39.88,30.388,39.881,34.704,39.881z"/>
	<path fill="#F2661E" d="M34.522,55.632c-4.271,0-8.542,0.003-12.812-0.004c-0.395-0.001-0.838,0.029-1.171-0.134
		c-0.25-0.122-0.476-0.525-0.492-0.815c-0.012-0.21,0.299-0.552,0.536-0.635c0.363-0.128,0.787-0.108,1.185-0.108
		c8.542-0.005,17.083-0.004,25.625-0.003c0.311,0,0.678-0.083,0.92,0.052c0.331,0.184,0.566,0.54,0.843,0.822
		c-0.296,0.271-0.551,0.631-0.899,0.787c-0.297,0.134-0.7,0.038-1.055,0.038C42.975,55.632,38.749,55.631,34.522,55.632z"/>
	<path fill="#F2661E" d="M30.034,29.281c2.801-0.001,5.602-0.001,8.403,0c0.68,0,1.515-0.02,1.44,0.892
		c-0.026,0.315-0.888,0.798-1.373,0.802c-5.691,0.057-11.382,0.057-17.073,0.001c-0.479-0.005-1.325-0.478-1.36-0.803
		c-0.103-0.951,0.765-0.884,1.425-0.887C24.343,29.276,27.189,29.282,30.034,29.281z"/>
	<path fill="#F2661E" d="M30.024,22.27c2.799,0,5.598,0,8.398,0c0.667,0,1.514-0.089,1.447,0.854
		c-0.021,0.299-0.886,0.764-1.368,0.769c-5.687,0.054-11.375,0.053-17.061,0c-0.479-0.004-1.326-0.446-1.362-0.758
		c-0.114-0.988,0.767-0.858,1.416-0.86C24.336,22.265,27.18,22.27,30.024,22.27z"/>
	<path fill="#F2661E" d="M29.953,27.455c-2.844,0.001-5.689,0.038-8.531-0.036c-0.479-0.013-0.945-0.508-1.417-0.78
		c0.459-0.29,0.915-0.829,1.376-0.833c5.732-0.057,11.465-0.057,17.197,0.003c0.459,0.005,0.912,0.561,1.367,0.861
		c-0.442,0.262-0.88,0.74-1.328,0.751C35.731,27.488,32.842,27.455,29.953,27.455z"/>
	<path fill="#F2661E" d="M41.431,62.636c-2.13-0.001-4.261,0.044-6.388-0.04c-0.424-0.017-0.828-0.525-1.241-0.807
		c0.426-0.269,0.848-0.767,1.277-0.773c4.259-0.058,8.519-0.058,12.777-0.001c0.437,0.006,1.187,0.434,1.239,0.755
		c0.145,0.896-0.648,0.863-1.275,0.865C45.691,62.64,43.561,62.637,41.431,62.636z"/>
</g>
</svg>
