<svg id="Capa_1" data-name="Capa 1" xmlns="http://www.w3.org/2000/svg" viewBox="0 0 250 250"><defs><style>.cls-1{fill:#f9c5eb;}.cls-2{fill:#c64769;}</style></defs><title>ecommerce-solution</title><circle class="cls-1" cx="111.8" cy="133.55" r="111.8"/><path class="cls-2" d="M247.16,118.15A2.85,2.85,0,0,0,250,115.3V38.74A18.83,18.83,0,0,0,232.62,20,30.62,30.62,0,0,0,179.57,20H151.44a23.31,23.31,0,0,0-41.75,14.27v6.83H95.06a2.84,2.84,0,0,0-2.83,2.55l-9.4,90.52H64.17V38.74a13.11,13.11,0,0,1,13.11-13.1h29.18a2.85,2.85,0,0,0,0-5.69H77.28a18.81,18.81,0,0,0-18.8,18.79V138.86a19,19,0,0,0,19,19H86a2.85,2.85,0,1,0,0-5.69H77.45a13.29,13.29,0,0,1-13.24-12.33H244.27A13.3,13.3,0,0,1,231,152.14H95.48a2.85,2.85,0,0,0,0,5.69h22.81l-3.78,15.82h-7.87a14.84,14.84,0,0,0-14.82,14.82v5.11a2.85,2.85,0,0,0,2.85,2.84H213.81a2.85,2.85,0,0,0,2.85-2.84v-5.11a14.84,14.84,0,0,0-14.83-14.82H194l-3.78-15.82H231a19,19,0,0,0,19-19V124.78a2.85,2.85,0,0,0-5.69,0v9.34H201.63l-6.45-60.44a2.85,2.85,0,0,0-2.83-2.54H176.66L173.8,43.6A2.86,2.86,0,0,0,171,41.05H156.34V34.22a23.16,23.16,0,0,0-1.65-8.59H177a30.65,30.65,0,1,0,58.38.69,13.13,13.13,0,0,1,8.93,12.42V115.3A2.85,2.85,0,0,0,247.16,118.15ZM211,188.47v2.27H97.51v-2.27a9.15,9.15,0,0,1,9.13-9.13h95.19A9.15,9.15,0,0,1,211,188.47Zm-22.85-14.82H120.36l3.78-15.82h60.2Zm7.79-39.53H136l6.11-57.29h47.65ZM168.4,46.74l2.54,24.4H139.59a2.84,2.84,0,0,0-2.83,2.54l-6.45,60.44H88.55l9.07-87.38h12.07V53a2.85,2.85,0,1,0,5.69,0V46.74h35.27V53a2.85,2.85,0,1,0,5.69,0V46.74ZM150.65,34.22v6.83H115.38V34.22a17.62,17.62,0,0,1,28-14.27H125.8a2.85,2.85,0,1,0,0,5.69h22.61A17.55,17.55,0,0,1,150.65,34.22Zm55.43,26a25,25,0,1,1,25-25A25,25,0,0,1,206.08,60.26Z"/><path class="cls-2" d="M166,107.08a9.4,9.4,0,0,1-9.39-9.38V85.47a2.85,2.85,0,1,0-5.69,0V97.7a15.08,15.08,0,0,0,30.15,0V85.47a2.85,2.85,0,1,0-5.69,0V97.7A9.39,9.39,0,0,1,166,107.08Z"/><path class="cls-2" d="M217.68,19.45a2.84,2.84,0,0,0-3.8,1.31L203,43.15l-4.93-8.87a2.85,2.85,0,0,0-5,2.76l7.59,13.66a2.84,2.84,0,0,0,2.48,1.46h.08a2.85,2.85,0,0,0,2.48-1.6L219,23.25A2.85,2.85,0,0,0,217.68,19.45Z"/><path class="cls-2" d="M236.75,79.85H209.44a2.85,2.85,0,0,0,0,5.69h27.31a2.85,2.85,0,0,0,0-5.69Z"/><path class="cls-2" d="M236.75,93.12H215.13a2.85,2.85,0,0,0,0,5.69h21.62a2.85,2.85,0,0,0,0-5.69Z"/></svg>