<svg id="Capa_1" data-name="Capa 1" xmlns="http://www.w3.org/2000/svg" viewBox="0 0 250 250"><defs><style>.cls-1{fill:#c5fcd4;}.cls-2{fill:#46c767;}</style></defs><title>graphic-designing</title><circle class="cls-1" cx="111.8" cy="133.46" r="111.8"/><g id="Layer_22" data-name="Layer 22"><path class="cls-2" d="M234.54,4.65H117.05a15.46,15.46,0,0,0-15.46,15.46v9.28H73.77A15.46,15.46,0,0,0,58.31,44.84V137.6a15.46,15.46,0,0,0,15.46,15.46h43.28v18.55h-6.18a15.46,15.46,0,0,0-15.46,15.46v6.18a3.09,3.09,0,0,0,3.09,3.09h80.39a3.09,3.09,0,0,0,3.09-3.09v-6.18a15.46,15.46,0,0,0-15.46-15.46h-6.18V153.06h43.28a15.46,15.46,0,0,0,15.46-15.46V116h15.46A15.46,15.46,0,0,0,250,100.5V20.11A15.46,15.46,0,0,0,234.54,4.65ZM117.05,10.83H234.54a9.29,9.29,0,0,1,9.28,9.28V23.2h-136V20.11A9.28,9.28,0,0,1,117.05,10.83ZM175.8,187.07v3.09H101.59v-3.09a9.28,9.28,0,0,1,9.28-9.28h55.65A9.28,9.28,0,0,1,175.8,187.07Zm-21.65-15.46H123.24V153.06h30.91Zm49.47-24.74H73.77a9.28,9.28,0,0,1-9.28-9.27v-9.28H212.9v9.28A9.27,9.27,0,0,1,203.62,146.87Zm9.28-24.73H64.49V44.84a9.28,9.28,0,0,1,9.28-9.27h27.82V100.5A15.47,15.47,0,0,0,117.05,116H212.9Zm21.64-12.37H117.05a9.27,9.27,0,0,1-9.27-9.27V29.39h136V100.5A9.28,9.28,0,0,1,234.54,109.77Z"/><path class="cls-2" d="M200.53,134.51h6.19v6.18h-6.19Z"/><path class="cls-2" d="M188.16,134.51h6.19v6.18h-6.19Z"/><path class="cls-2" d="M175.8,134.51H182v6.18H175.8Z"/><path class="cls-2" d="M234.54,35.57H117.05A3.09,3.09,0,0,0,114,38.66V100.5a3.1,3.1,0,0,0,3.09,3.09H234.54a3.09,3.09,0,0,0,3.09-3.09V38.66A3.09,3.09,0,0,0,234.54,35.57ZM138.7,91.22h12.36V85H138.7V78.85h6.18V72.67H138.7V66.49h6.18V60.3H138.7V54.12h18.55V97.4H138.7Zm46.71-19.08a5,5,0,0,1-2.25.53h-2.35a5,5,0,0,1-2.26-.53,5,5,0,0,1-2.75-4.48,3.77,3.77,0,0,1,2.1-3.4A7.38,7.38,0,0,0,182,58.45l4.11,4.11a7.16,7.16,0,0,1,2.07,5.1,4.94,4.94,0,0,1-2.75,4.48Zm-6.52,6.5a12.26,12.26,0,0,0,1.92.21h2.35a12.27,12.27,0,0,0,1.91-.21V97.4h-6.18Zm27.83-6h6.18V97.4h-6.18Zm1.2-6.18,1.89-5.69,1.88,5.69ZM231.45,97.4H219.08V69.58a3.29,3.29,0,0,0,0-1L212.9,50A3.1,3.1,0,0,0,207,50l-6.18,18.55a3.8,3.8,0,0,0-.31,1V97.4h-9.27v-22a11.15,11.15,0,0,0,3.09-7.7,13.2,13.2,0,0,0-3.93-9.46l-9.27-9.27A3.17,3.17,0,0,0,175.8,51v6.65a1.23,1.23,0,0,1-.65,1,10,10,0,0,0-5.54,8.93,11.11,11.11,0,0,0,3.1,7.7v22h-9.28V51a3.09,3.09,0,0,0-3.09-3.09H135.6A3.09,3.09,0,0,0,132.51,51V97.4H120.15V41.75h111.3Z"/></g></svg>