<svg id="Capa_1" data-name="Capa 1" xmlns="http://www.w3.org/2000/svg" viewBox="0 0 250 250"><defs><style>.cls-1{fill:#d9f3ff;}.cls-2{fill:#189fea;}</style></defs><title>website-design</title><circle class="cls-1" cx="111.8" cy="133.3" r="111.8"/><path class="cls-2" d="M236,4.9H46.51a14.06,14.06,0,0,0-14,14V138.22a14.06,14.06,0,0,0,14,14h72.31l-4.67,14H102.64a3.51,3.51,0,0,0-3.51,3.51v7H67.56a3.51,3.51,0,0,0,0,7H221.93a3.51,3.51,0,0,0,0-7H183.34v-7a3.51,3.51,0,0,0-3.51-3.51h-11.5l-4.68-14H236a14.06,14.06,0,0,0,14-14V18.93A14.05,14.05,0,0,0,236,4.9ZM176.32,173.31v3.51H106.15v-3.51Zm-54.78-7,4.68-14h30l4.68,14ZM243,138.22a7,7,0,0,1-7,7H46.51a7,7,0,0,1-7-7v-7H243ZM92,92.61l-1.32,31.58H86.56L85.25,92.61Zm-6.24-7,2.34-14h1.07l2.34,14Zm2.88-21c-3.8,0-7-4.82-7-10.53,0-3.6,3.68-8.83,7-12.52,3,3.33,7,8.66,7,12.52C95.62,59.73,92.41,64.55,88.61,64.55Zm38.18-7,.41.83V61h-14V58.36l.41-.83Zm-9.7-7,3.09-6.19,3.1,6.19ZM127.2,68.05v55.7a3.25,3.25,0,0,0,0,.44H113.14a3.25,3.25,0,0,0,0-.44V68.05Zm31.58-14H169.3v7h-3.5a3.51,3.51,0,1,0,0,7h3.5v7H158.78a3.51,3.51,0,1,0,0,7H169.3v7h-3.5a3.51,3.51,0,0,0,0,7h3.5v7H158.78a3.51,3.51,0,0,0,0,7H169.3v14H144.74V40H169.3v7H158.78a3.51,3.51,0,1,0,0,7Zm42.1,42.1v27.63a3.25,3.25,0,0,0,0,.44H186.82c0-.15,0-.29,0-.44V96.12Zm-14-7V86.43l7-14,7,14V89.1ZM243,124.19H207.87a3.25,3.25,0,0,0,0-.44V85.6a3.52,3.52,0,0,0-.37-1.57L197,63a3.51,3.51,0,0,0-6.28,0L180.2,84a3.52,3.52,0,0,0-.37,1.57v38.15a3.25,3.25,0,0,0,0,.44h-3.54V36.48A3.51,3.51,0,0,0,172.81,33H141.24a3.51,3.51,0,0,0-3.51,3.51v87.71h-3.54a3.25,3.25,0,0,0,0-.44V57.53a3.55,3.55,0,0,0-.37-1.57L123.32,34.91a3.51,3.51,0,0,0-6.28,0L106.52,56a3.55,3.55,0,0,0-.37,1.57v66.22a3.25,3.25,0,0,0,0,.44H97.67l1.46-34.94V88.9a2.52,2.52,0,0,0,0-.37h0L95.84,69.05c4.07-3.08,6.8-8.66,6.8-15,0-9-10.45-19-11.64-20.11a3.52,3.52,0,0,0-4.78,0C85,35,74.57,45,74.57,54c0,6.37,2.73,11.95,6.81,15L78.13,88.53h0a2.46,2.46,0,0,0,0,.37V89a1.92,1.92,0,0,0,0,.24l1.45,34.94H39.49V18.93a7,7,0,0,1,7-7H236a7,7,0,0,1,7,7Z"/><path class="cls-2" d="M71.06,134.72H50a3.51,3.51,0,0,0,0,7H71.06a3.51,3.51,0,1,0,0-7Z"/><path class="cls-2" d="M85.1,134.72H81.59a3.51,3.51,0,1,0,0,7H85.1a3.51,3.51,0,1,0,0-7Z"/><path class="cls-2" d="M120.18,71.56a3.51,3.51,0,0,0-3.5,3.51v38.59a3.51,3.51,0,1,0,7,0V75.07A3.51,3.51,0,0,0,120.18,71.56Z"/><path class="cls-2" d="M193.86,99.63a3.51,3.51,0,0,0-3.51,3.51v10.52a3.51,3.51,0,1,0,7,0V103.14A3.51,3.51,0,0,0,193.86,99.63Z"/><path class="cls-2" d="M50,26H78.08a3.51,3.51,0,1,0,0-7H50a3.51,3.51,0,0,0,0,7Z"/><path class="cls-2" d="M50,36.48h7a3.51,3.51,0,0,0,0-7H50a3.51,3.51,0,0,0,0,7Z"/><path class="cls-2" d="M218.42,117.17h14a3.51,3.51,0,1,0,0-7h-14a3.51,3.51,0,1,0,0,7Z"/><path class="cls-2" d="M229,106.65h3.51a3.51,3.51,0,0,0,0-7H229a3.51,3.51,0,1,0,0,7Z"/></svg>