<svg id="Capa_1" data-name="Capa 1" xmlns="http://www.w3.org/2000/svg" viewBox="0 0 250 250"><defs><style>.cls-1{fill:#f7cbc6;}.cls-2{fill:#f47137;}</style></defs><title>website-development</title><circle class="cls-1" cx="109.86" cy="134.87" r="109.99"/><path class="cls-2" d="M74.08,77.63a2.91,2.91,0,0,0,4.12-4.12l-7.07-7.07,7.07-7.07a2.91,2.91,0,0,0-4.12-4.12L65,64.38a2.92,2.92,0,0,0,0,4.12Z"/><path class="cls-2" d="M103,66.44l-7.07,7.07a2.91,2.91,0,0,0,2.06,5,2.87,2.87,0,0,0,2-.85l9.13-9.13a2.91,2.91,0,0,0,0-4.12L100,55.25a2.91,2.91,0,0,0-4.11,4.12Z"/><path class="cls-2" d="M82.71,78.28a2.86,2.86,0,0,0,1.07.2,2.91,2.91,0,0,0,2.71-1.85l7.17-18.25a2.91,2.91,0,1,0-5.42-2.13L81.07,74.5A2.92,2.92,0,0,0,82.71,78.28Z"/><path class="cls-2" d="M68.66,95.56H88.28a2.91,2.91,0,0,0,0-5.82H68.66a2.91,2.91,0,1,0,0,5.82Z"/><path class="cls-2" d="M133.46,89.74H99a2.91,2.91,0,0,0,0,5.82h34.49a2.91,2.91,0,0,0,0-5.82Z"/><path class="cls-2" d="M68.66,107.85H77A2.92,2.92,0,0,0,77,102H68.66a2.92,2.92,0,0,0,0,5.83Z"/><path class="cls-2" d="M122.8,102a2.92,2.92,0,0,0,0,5.83h5.09a2.92,2.92,0,0,0,0-5.83Z"/><path class="cls-2" d="M115.14,104.93a2.92,2.92,0,0,0-2.91-2.91h-25a2.92,2.92,0,0,0,0,5.83h25A2.92,2.92,0,0,0,115.14,104.93Z"/><path class="cls-2" d="M134.21,104.93a2.92,2.92,0,0,0,2.91,2.92h9.54a2.92,2.92,0,0,0,0-5.83h-9.54A2.92,2.92,0,0,0,134.21,104.93Z"/><path class="cls-2" d="M118.35,68.78h10.06a2.92,2.92,0,0,0,0-5.83H118.35a2.92,2.92,0,0,0,0,5.83Z"/><path class="cls-2" d="M139.67,68.78H201A2.92,2.92,0,0,0,201,63H139.67a2.92,2.92,0,0,0,0,5.83Z"/><path class="cls-2" d="M191.69,75.76H166.84a2.92,2.92,0,0,0,0,5.83h24.85a2.92,2.92,0,0,0,0-5.83Z"/><path class="cls-2" d="M157.53,75.76H149a2.92,2.92,0,1,0,0,5.83h8.54a2.92,2.92,0,0,0,0-5.83Z"/><path class="cls-2" d="M118.35,81.59h20.93a2.92,2.92,0,0,0,0-5.83H118.35a2.92,2.92,0,0,0,0,5.83Z"/><path class="cls-2" d="M112.26,114.2H92.65a2.91,2.91,0,0,0,0,5.82h19.61a2.91,2.91,0,0,0,0-5.82Z"/><path class="cls-2" d="M83.73,114.2H68.66a2.91,2.91,0,0,0,0,5.82H83.73a2.91,2.91,0,0,0,0-5.82Z"/><path class="cls-2" d="M147.82,114.2H122.2a2.91,2.91,0,0,0,0,5.82h25.62a2.91,2.91,0,0,0,0-5.82Z"/><path class="cls-2" d="M182.47,99.24h-14a2.92,2.92,0,0,0,0,5.83h14a2.92,2.92,0,0,0,0-5.83Z"/><path class="cls-2" d="M206.79,105.07h19.78a2.92,2.92,0,0,0,0-5.83H206.79a2.92,2.92,0,0,0,0,5.83Z"/><path class="cls-2" d="M196.9,99.24h-4.54a2.92,2.92,0,0,0,0,5.83h4.54a2.92,2.92,0,0,0,0-5.83Z"/><path class="cls-2" d="M168.46,136.8h14a2.92,2.92,0,0,0,0-5.83h-14a2.92,2.92,0,0,0,0,5.83Z"/><path class="cls-2" d="M206.79,136.8h19.78a2.92,2.92,0,0,0,0-5.83H206.79a2.92,2.92,0,0,0,0,5.83Z"/><path class="cls-2" d="M192.36,136.8h4.54a2.92,2.92,0,0,0,0-5.83h-4.54a2.92,2.92,0,0,0,0,5.83Z"/><path class="cls-2" d="M182.47,162.71h-14a2.91,2.91,0,1,0,0,5.82h14a2.91,2.91,0,1,0,0-5.82Z"/><path class="cls-2" d="M226.57,162.71H206.79a2.91,2.91,0,1,0,0,5.82h19.78a2.91,2.91,0,0,0,0-5.82Z"/><path class="cls-2" d="M196.9,162.71h-4.54a2.91,2.91,0,0,0,0,5.82h4.54a2.91,2.91,0,1,0,0-5.82Z"/><path class="cls-2" d="M237.31,5.14H64A12.83,12.83,0,0,0,51.17,18V158.84A12.83,12.83,0,0,0,64,171.66H74.94a2.91,2.91,0,1,0,0-5.82H64a7,7,0,0,1-7-7v-11H163.08v5h-2.31a5.73,5.73,0,0,0-5.73,5.72v7.3H92.65a2.91,2.91,0,0,0,0,5.82h28V182.1h-8.79a10.65,10.65,0,0,0-10.63,10.64V199a4.85,4.85,0,0,0,4.85,4.85H195a4.86,4.86,0,0,0,4.85-4.85v-6.29a10.65,10.65,0,0,0-10.64-10.64h-8.79v-3.68h53.83a5.74,5.74,0,0,0,5.73-5.73v-1.37a12.83,12.83,0,0,0,9.92-12.48L250.13,18A12.83,12.83,0,0,0,237.31,5.14ZM160.87,140.87v-14h73.29v14Zm8-19.79V115h57.23v6.12Zm57.23,25.61v6.13H168.9v-6.13Zm-99.66,25H155v1a5.74,5.74,0,0,0,5.73,5.73h13.84v3.68H126.47Zm62.76,16.27a4.81,4.81,0,0,1,4.81,4.81v5.32H107v-5.32a4.81,4.81,0,0,1,4.81-4.81Zm44.93-15.33H160.87v-14h73.29Zm9.92-13.76A7,7,0,0,1,240,165.2v-6.66a5.73,5.73,0,0,0-5.73-5.72H232v-5h12.13Zm0-16.87h-4.19c.06-.32.1-15.16.1-15.16a5.74,5.74,0,0,0-5.73-5.73H232V115h2.31a5.74,5.74,0,0,0,5.73-5.73V95.08a5.74,5.74,0,0,0-5.73-5.73H217.82a2.92,2.92,0,1,0,0,5.83h16.34v13.95H160.87V95.18H199.7a2.92,2.92,0,0,0,0-5.83H160.77A5.74,5.74,0,0,0,155,95.08v14.15a5.74,5.74,0,0,0,5.73,5.73h2.31v6.12h-2.31a5.74,5.74,0,0,0-5.73,5.73s0,14.84.1,15.16H57V44.75H244.08Zm0-103H57.21V18a7,7,0,0,1,7-7H237.09a7,7,0,0,1,7,7Z"/><path class="cls-2" d="M72.64,16.32a8.55,8.55,0,1,0,8.55,8.54A8.55,8.55,0,0,0,72.64,16.32Zm0,11.26a2.72,2.72,0,1,1,2.73-2.72A2.72,2.72,0,0,1,72.64,27.58Z"/><path class="cls-2" d="M94.4,16.32a8.55,8.55,0,1,0,8.54,8.54A8.56,8.56,0,0,0,94.4,16.32Zm0,11.26a2.72,2.72,0,1,1,2.72-2.72A2.72,2.72,0,0,1,94.4,27.58Z"/><path class="cls-2" d="M116.16,16.32a8.55,8.55,0,1,0,8.54,8.54A8.55,8.55,0,0,0,116.16,16.32Zm0,11.26a2.72,2.72,0,1,1,2.72-2.72A2.73,2.73,0,0,1,116.16,27.58Z"/></svg>